<svg xmlns="http://www.w3.org/2000/svg" width="64" height="64" viewBox="0 0 64 64" role="img" aria-label="热河守艺人">
  <defs>
    <linearGradient id="paper" x1="10" y1="8" x2="54" y2="58" gradientUnits="userSpaceOnUse">
      <stop stop-color="#fff8ea"/>
      <stop offset="1" stop-color="#f1d9ad"/>
    </linearGradient>
    <linearGradient id="seal" x1="13" y1="11" x2="52" y2="55" gradientUnits="userSpaceOnUse">
      <stop stop-color="#d44a28"/>
      <stop offset="1" stop-color="#8f311e"/>
    </linearGradient>
  </defs>
  <rect width="64" height="64" rx="18" fill="url(#paper)"/>
  <path d="M12 18c0-3.3 2.7-6 6-6h28.5c3.3 0 6 2.7 6 6v27.8c0 3.3-2.7 6-6 6H18c-3.3 0-6-2.7-6-6V18Z" fill="url(#seal)"/>
  <path d="M18 20.5c4.7 1.2 9.2.9 13.7-.8 4.6-1.8 9.1-1.8 13.8-.2" fill="none" stroke="#f9e8c5" stroke-width="2.8" stroke-linecap="round"/>
  <path d="M20 44c3.6-2.7 7.5-4.2 11.8-4.2 4.4 0 8.4 1.4 12.2 4.1" fill="none" stroke="#f9e8c5" stroke-width="2.8" stroke-linecap="round"/>
  <text x="32" y="36.5" text-anchor="middle" font-family="serif" font-size="22" font-weight="700" fill="#fff8ea" letter-spacing="2">非遗</text>
  <path d="M14.5 16.5 18 15M48.5 49 52 47.5" stroke="#f7d99d" stroke-width="2" stroke-linecap="round" opacity=".7"/>
</svg>
